<?xml version="1.0" standalone="no"?><!DOCTYPE svg PUBLIC "-//W3C//DTD SVG 1.1//EN" "http://www.w3.org/Graphics/SVG/1.1/DTD/svg11.dtd"><svg class="icon" width="180px" height="156.07px" viewBox="0 0 1181 1024" version="1.1" xmlns="http://www.w3.org/2000/svg"><path d="M210.280794 1023.999958a52.506335 52.506335 0 0 1-37.251686-15.423209A586.84047 586.84047 0 0 1 0.002613 590.717342C0.002613 264.975792 264.978405 0 590.719955 0s590.717342 264.975792 590.717342 590.717342A587.556848 587.556848 0 0 1 1013.931131 1002.93a52.674895 52.674895 0 1 1-75.472589-73.492014 485.367552 485.367552 0 1 0-691.094622 4.593251A52.674895 52.674895 0 0 1 210.280794 1023.999958z"  /><path d="M590.719955 806.726551m-84.279832 0a84.279832 84.279832 0 1 0 168.559664 0 84.279832 84.279832 0 1 0-168.559664 0Z"  /><path d="M538.04506 394.471753m52.674895 0l0 0q52.674895 0 52.674895 52.674895l0 306.905008q0 52.674895-52.674895 52.674895l0 0q-52.674895 0-52.674895-52.674895l0-306.905008q0-52.674895 52.674895-52.674895Z"  /><path d="M538.04506 52.674895m52.674895 0l0 0q52.674895 0 52.674895 52.674895l0 42.814155q0 52.674895-52.674895 52.674894l0 0q-52.674895 0-52.674895-52.674894l0-42.814155q0-52.674895 52.674895-52.674895Z"  /><path d="M1065.451909 346.898256m19.809056 48.808256l0 0q19.809055 48.808256-28.999201 68.617312l-39.671351 16.1008q-48.808256 19.809055-68.617312-28.999201l0 0q-19.809055-48.808256 28.999201-68.617312l39.671351-16.1008q48.808256-19.809055 68.617312 28.999201Z"  /><path d="M246.3676 410.53253m-24.02033 46.879295l0 0q-24.020329 46.879295-70.899624 22.858966l-38.103492-19.523723q-46.879295-24.020329-22.858966-70.899625l0 0q24.020329-46.879295 70.899625-22.858966l38.103491 19.523724q46.879295 24.020329 22.858966 70.899624Z"  /></svg>