<?xml version="1.0" standalone="no"?><!DOCTYPE svg PUBLIC "-//W3C//DTD SVG 1.1//EN" "http://www.w3.org/Graphics/SVG/1.1/DTD/svg11.dtd"><svg class="icon" width="180px" height="180.00px" viewBox="0 0 1024 1024" version="1.1" xmlns="http://www.w3.org/2000/svg"><path d="M786.046745 99.156473a47.922382 47.922382 0 0 0-65.649767 13.441644 46.169124 46.169124 0 0 0 13.733853 64.578331 403.736326 403.736326 0 0 1 186.819367 339.839818 412.794825 412.794825 0 0 1-825.492248 0 403.638923 403.638923 0 0 1 186.721964-339.839818 46.071721 46.071721 0 0 0 13.733853-64.578331 47.824979 47.824979 0 0 0-65.552364-13.441644 496.756397 496.756397 0 0 0-229.774184 417.859793 507.47075 507.47075 0 0 0 1014.844098 0 495.782365 495.782365 0 0 0-229.384572-417.859793zM508.155372 705.58889a46.94835 46.94835 0 0 0 47.337963-46.753543V47.922382a47.337963 47.337963 0 0 0-94.675925 0v610.912965a47.045753 47.045753 0 0 0 47.337962 46.753543z" /></svg>