<?xml version="1.0" standalone="no"?><!DOCTYPE svg PUBLIC "-//W3C//DTD SVG 1.1//EN" "http://www.w3.org/Graphics/SVG/1.1/DTD/svg11.dtd"><svg class="icon" width="180px" height="180.00px" viewBox="0 0 1024 1024" version="1.1" xmlns="http://www.w3.org/2000/svg"><path d="M214.823094 362.574108h148.811363a34.438226 34.438226 0 0 0 0-68.842321H212.809362a32.663412 32.663412 0 0 0-23.48216 11.4339 36.383696 36.383696 0 0 0-9.044727 24.881533 34.335833 34.335833 0 0 0 34.540619 32.526888z" /><path d="M214.823094 216.117787h148.811363a34.438226 34.438226 0 1 0 0-68.842321H212.843493a34.438226 34.438226 0 0 0 1.877208 68.842321z" /><path d="M586.032356 510.70285h147.275466a108.195418 108.195418 0 0 0 108.093024-108.093025V255.334359a108.195418 108.195418 0 0 0-108.093024-108.058893H586.032356a108.878039 108.878039 0 0 0-108.093024 108.058893v147.275466a108.195418 108.195418 0 0 0 108.093024 108.093025z m-39.216572-255.368491a39.250704 39.250704 0 0 1 39.216572-39.182441h147.275466a40.138111 40.138111 0 0 1 39.728538 39.182441v147.275466a39.762669 39.762669 0 0 1-39.728538 39.694407H586.032356a39.523752 39.523752 0 0 1-39.216572-39.694407z" /><path d="M214.823094 509.337608h148.811363a34.438226 34.438226 0 0 0 0-68.876452H212.843493a34.438226 34.438226 0 0 0 1.877208 68.842321z" /><path d="M807.099145 0.068262H216.358991A181.918478 181.918478 0 0 0 34.133333 181.269988v661.493813a181.918478 181.918478 0 0 0 182.225658 181.235858h591.252119a181.918478 181.918478 0 0 0 182.225658-181.235858V181.201726A182.840016 182.840016 0 0 0 807.099145 0.068262z m114.16835 181.201726v661.459682a114.13422 114.13422 0 0 1-114.16835 112.632454H216.358991a113.895302 113.895302 0 0 1-113.656385-112.632454V181.201726a114.13422 114.13422 0 0 1 113.656385-113.042026h591.252119a114.100089 114.100089 0 0 1 113.622254 113.042026z" /><path d="M586.305404 734.77317H213.048279a32.629281 32.629281 0 0 0-23.48216 11.433901 36.383696 36.383696 0 0 0-9.044727 24.881533 34.335833 34.335833 0 0 0 34.404095 32.526887h373.120601a34.847799 34.847799 0 0 0 32.526887-36.315433 34.131047 34.131047 0 0 0-34.267571-32.526888z" /><path d="M807.440455 587.907277H216.085943a34.438226 34.438226 0 0 0-5.699885 68.262093v0.477835h597.668756a35.086716 35.086716 0 0 0 34.57475-34.608882 35.086716 35.086716 0 0 0-35.189109-34.131046z" /><path d="M487.393632 977.274256h24.540222v19.727745h-24.540222z" /></svg>