<?xml version="1.0" standalone="no"?><!DOCTYPE svg PUBLIC "-//W3C//DTD SVG 1.1//EN" "http://www.w3.org/Graphics/SVG/1.1/DTD/svg11.dtd"><svg class="icon" width="180px" height="180.00px" viewBox="0 0 1024 1024" version="1.1" xmlns="http://www.w3.org/2000/svg"><path d="M192 0h640a192 192 0 0 1 192 192v640a192 192 0 0 1-192 192H192a192 192 0 0 1-192-192V192a192 192 0 0 1 192-192z m0 64a128 128 0 0 0-128 128v640a128 128 0 0 0 128 128h640a128 128 0 0 0 128-128V192a128 128 0 0 0-128-128H192z m32 416h576a32 32 0 1 1 0 64h-576a32 32 0 0 1 0-64z" /></svg>