<?xml version="1.0" standalone="no"?><!DOCTYPE svg PUBLIC "-//W3C//DTD SVG 1.1//EN" "http://www.w3.org/Graphics/SVG/1.1/DTD/svg11.dtd"><svg class="icon" width="180px" height="180.00px" viewBox="0 0 1024 1024" version="1.1" xmlns="http://www.w3.org/2000/svg"><path d="M929.15201264 842.43520895c-7.04228819-23.06004175-31.62125485-35.9018614-54.5432125-28.99765728-23.06004175 7.04228819-36.03994548 31.62125485-28.99765729 54.6812966 10.21822208 33.14017975 15.32733314 67.79928442 15.32733314 102.87264131 0 24.1647144 19.6079397 43.77265408 43.77265409 43.77265409s43.77265408-19.6079397 43.77265408-43.77265409c-0.13808409-43.77265408-6.62803595-87.13105594-19.33177152-128.55628063zM778.0880266 624.67661117c-29.68807769-22.92195766-61.7235848-41.56330877-95.41610087-55.92405334 81.19344039-55.09554883 134.63198025-148.02613623 134.63198024-253.38429102 0-168.73874859-137.2555778-305.99432638-305.99432639-305.99432639s-305.99432638 137.2555778-305.99432639 305.99432639c0 105.35815481 53.57662394 198.42682627 134.77006434 253.52237511C184.05030453 635.58525366 74.27345909 790.65367808 74.27345909 970.85340549c0 24.1647144 19.6079397 43.77265408 43.77265409 43.77265409s43.77265408-19.6079397 43.77265408-43.77265409c0-192.7653789 156.86351749-349.62889639 349.62889641-349.62889639 78.01750651 0 151.75440645 25.13130297 213.33990716 72.63222729 19.05560336 14.7749968 46.53433573 11.18481067 61.30933254-7.87079269 14.63691274-19.05560336 11.04672658-46.53433573-8.00887677-61.30933253z m-485.3655493-309.30834436c0-120.54740385 98.03969843-218.58710228 218.58710228-218.5871023s218.58710228 98.03969843 218.58710229 218.5871023-98.03969843 218.58710228-218.58710229 218.58710228-218.58710228-98.17778252-218.58710228-218.58710228z" /><path d="M831.80273461 759.72284365m-43.77265408 0a43.77265408 43.77265408 0 1 0 87.54530817 0 43.77265408 43.77265408 0 1 0-87.54530817 0Z" /></svg>